Coordinates
version=1
nRows=38
nColumns=38
inDegrees=no

Units are S.I. units (second, meters, Newtons, ...)
If the header above contains a line with 'inDegrees', this indicates whether rotational values are in degrees (yes) or radians (no).

endheader
time	pelvis_tilt	pelvis_list	pelvis_rotation	pelvis_tx	pelvis_ty	pelvis_tz	hip_flexion_r	hip_adduction_r	hip_rotation_r	knee_angle_r	ankle_angle_r	subtalar_angle_r	mtp_angle_r	hip_flexion_l	hip_adduction_l	hip_rotation_l	knee_angle_l	ankle_angle_l	subtalar_angle_l	mtp_angle_l	lumbar_extension	lumbar_bending	lumbar_rotation	arm_flex_r	arm_add_r	arm_rot_r	elbow_flex_r	pro_sup_r	wrist_flex_r	wrist_dev_r	arm_flex_l	arm_add_l	arm_rot_l	elbow_flex_l	pro_sup_l	wrist_flex_l	wrist_dev_l
10	-3.10585	1.3451	-1.22548	0.67328	1.84759	0.944548	-0.0488784	0.0735693	-0.0157237	0.566042	-0.166211	0	0	0.239607	-0.155335	-0.205627	0.655802	-0.300528	0	0	-0.409268	0.0923103	0.160715	0.604091	-0.199153	-0.212285	1.32672	1.5708	0	0	0.231665	-0.426269	0.40819	0.456367	1.5708	0	0
10.01	-3.09598	1.34557	-1.22827	0.673265	1.8435	0.944808	-0.0459494	0.0715113	-0.0164281	0.564441	-0.167877	0	0	0.241731	-0.160178	-0.207897	0.688872	-0.299949	0	0	-0.405188	0.0931761	0.162342	0.603938	-0.202646	-0.22111	1.31881	1.5708	0	0	0.232428	-0.428496	0.411093	0.46011	1.5708	0	0
10.02	-3.08452	1.3454	-1.23284	0.673201	1.83945	0.945125	-0.0440333	0.0690087	-0.0181246	0.562477	-0.169246	0	0	0.24127	-0.164119	-0.207383	0.719814	-0.299038	0	0	-0.401997	0.0937202	0.16387	0.603476	-0.206343	-0.229612	1.31154	1.5708	0	0	0.233429	-0.430357	0.410195	0.464169	1.5708	0	0
10.03	-3.0741	1.34494	-1.23667	0.673076	1.83548	0.945409	-0.0425964	0.0667024	-0.0198531	0.560194	-0.170674	0	0	0.239567	-0.168332	-0.206241	0.750651	-0.29679	0	0	-0.399017	0.0944217	0.165264	0.602691	-0.209923	-0.237777	1.30484	1.5708	0	0	0.233711	-0.431875	0.404786	0.469077	1.5708	0	0
10.04	-3.06557	1.34442	-1.2394	0.672917	1.83157	0.94563	-0.0410969	0.0648553	-0.0198619	0.558029	-0.171943	0	0	0.236925	-0.17296	-0.204315	0.781222	-0.293379	0	0	-0.396049	0.0952758	0.16685	0.602018	-0.213606	-0.245162	1.29819	1.5708	0	0	0.233091	-0.433107	0.396152	0.474658	1.5708	0	0
10.05	-3.05936	1.34379	-1.24047	0.672705	1.82768	0.945776	-0.0394333	0.0636724	-0.0179683	0.556366	-0.172854	0	0	0.233458	-0.177863	-0.201015	0.811274	-0.288897	0	0	-0.393128	0.0964605	0.168764	0.601585	-0.217745	-0.251933	1.29162	1.5708	0	0	0.231857	-0.43416	0.385708	0.481001	1.5708	0	0
10.06	-3.05365	1.34312	-1.24132	0.672468	1.82382	0.945858	-0.0377486	0.0622662	-0.0169965	0.55478	-0.173513	0	0	0.228982	-0.182379	-0.195991	0.83995	-0.284328	0	0	-0.390163	0.0976974	0.170803	0.600894	-0.221885	-0.258128	1.28546	1.5708	0	0	0.23088	-0.434853	0.374322	0.487147	1.5708	0	0
10.07	-3.05053	1.34295	-1.23966	0.672211	1.82005	0.945847	-0.035467	0.0610723	-0.0173106	0.552932	-0.174509	0	0	0.224635	-0.187239	-0.190122	0.868194	-0.278639	0	0	-0.386498	0.0990975	0.172271	0.600122	-0.225212	-0.2642	1.27946	1.5708	0	0	0.228734	-0.43518	0.358185	0.494464	1.5708	0	0
10.08	-3.04772	1.34224	-1.2385	0.671898	1.81636	0.945815	-0.0337253	0.0597843	-0.0178954	0.551117	-0.176	0	0	0.221448	-0.195507	-0.19593	0.902854	-0.276775	0	0	-0.383339	0.100482	0.173745	0.599443	-0.228485	-0.269422	1.27359	1.5708	0	0	0.224204	-0.435624	0.340012	0.504043	1.5708	0	0
10.09	-3.05736	1.34165	-1.22507	0.671729	1.81246	0.946053	-0.0490947	0.0550619	-0.0586297	0.499124	-0.193407	0	0	0.212865	-0.200168	-0.17773	0.918905	-0.263666	0	0	-0.380247	0.10383	0.175933	0.598425	-0.23245	-0.27419	1.268	1.5708	0	0	0.220554	-0.43477	0.319955	0.512728	1.5708	0	0
10.1	-3.04231	1.34208	-1.23559	0.671249	1.80881	0.945663	-0.0286206	0.0564588	-0.0198753	0.547297	-0.185376	0	0	0.207646	-0.204143	-0.181458	0.948712	-0.262286	0	0	-0.37653	0.1023	0.175258	0.596935	-0.235092	-0.278224	1.26378	1.5708	0	0	0.215748	-0.436265	0.303201	0.523864	1.5708	0	0
10.11	-3.04144	1.34501	-1.2319	0.670789	1.80491	0.945353	-0.0215855	0.0536929	-0.021438	0.548449	-0.18238	0	0	0.200377	-0.203558	-0.160834	0.961572	-0.251088	0	0	-0.370103	0.102614	0.175244	0.594452	-0.238235	-0.282752	1.26025	1.5708	0	0	0.213139	-0.437075	0.290647	0.532494	1.5708	0	0
10.12	-3.04913	1.34402	-1.22041	0.670274	1.80086	0.945611	-0.0374611	0.0479985	-0.0625388	0.49678	-0.197648	0	0	0.191253	-0.209067	-0.150547	0.977925	-0.240881	0	0	-0.36792	0.106018	0.176023	0.593208	-0.241962	-0.286017	1.25648	1.5708	0	0	0.210562	-0.436581	0.276238	0.541093	1.5708	0	0
10.13	-3.03372	1.34632	-1.23042	0.669505	1.79713	0.94509	-0.0151417	0.047896	-0.0254402	0.545214	-0.189338	0	0	0.182907	-0.207673	-0.139972	0.992712	-0.233644	0	0	-0.362569	0.10376	0.172891	0.591311	-0.244068	-0.289077	1.25311	1.5708	0	0	0.206174	-0.439279	0.265352	0.552447	1.5708	0	0
10.14	-3.0335	1.34934	-1.22623	0.668773	1.79329	0.944775	-0.00787902	0.0444978	-0.0285116	0.547228	-0.187014	0	0	0.1762	-0.209597	-0.129708	1.0052	-0.228537	0	0	-0.355971	0.10397	0.171766	0.588441	-0.247024	-0.292571	1.24998	1.5708	0	0	0.20403	-0.440891	0.258639	0.56067	1.5708	0	0
10.15	-3.03278	1.35138	-1.22175	0.667913	1.78929	0.944534	-0.00177752	0.0407129	-0.0340643	0.548432	-0.187634	0	0	0.167752	-0.211058	-0.11842	1.01474	-0.223346	0	0	-0.350607	0.10472	0.169773	0.586139	-0.249715	-0.296199	1.2469	1.5708	0	0	0.202407	-0.442466	0.253011	0.568921	1.5708	0	0
10.16	-3.03311	1.35351	-1.2158	0.666942	1.78519	0.944263	0.00454075	0.0368759	-0.040014	0.549587	-0.189396	0	0	0.159492	-0.212192	-0.10598	1.02192	-0.218642	0	0	-0.345149	0.105793	0.167208	0.584126	-0.252225	-0.300044	1.24365	1.5708	0	0	0.201154	-0.443925	0.248311	0.576984	1.5708	0	0
10.17	-3.03338	1.35627	-1.20962	0.665875	1.78097	0.943926	0.0109826	0.0334466	-0.0420137	0.549632	-0.191084	0	0	0.15151	-0.212515	-0.0930776	1.02625	-0.214527	0	0	-0.339289	0.106698	0.163914	0.582443	-0.254941	-0.303323	1.24027	1.5708	0	0	0.200102	-0.445361	0.244381	0.584713	1.5708	0	0
10.18	-3.03449	1.36068	-1.20268	0.664717	1.77666	0.943393	0.0184136	0.0308279	-0.0371643	0.548085	-0.192376	0	0	0.144951	-0.211792	-0.0797565	1.02836	-0.210217	0	0	-0.331836	0.107157	0.159881	0.581179	-0.257914	-0.305744	1.23633	1.5708	0	0	0.198512	-0.446969	0.240701	0.592635	1.5708	0	0
10.19	-3.05425	1.36372	-1.17947	0.663809	1.7721	0.943259	0.0103427	0.0259673	-0.0737653	0.502095	-0.209692	0	0	0.138494	-0.215976	-0.0682924	1.02798	-0.207498	0	0	-0.325804	0.111054	0.159265	0.580269	-0.261606	-0.308393	1.23251	1.5708	0	0	0.199113	-0.44723	0.239789	0.597942	1.5708	0	0
10.2	-3.04928	1.37151	-1.17922	0.662762	1.76805	0.94204	0.0401587	0.0243015	-0.0409274	0.551894	-0.200983	0	0	0.134628	-0.213222	-0.0574104	1.02711	-0.204367	0	0	-0.314737	0.108273	0.154513	0.57777	-0.262559	-0.311409	1.22972	1.5708	0	0	0.196345	-0.450955	0.23829	0.607311	1.5708	0	0
10.21	-3.05658	1.37672	-1.16666	0.661437	1.76365	0.941382	0.0503142	0.0208414	-0.0404586	0.553877	-0.198755	0	0	0.128914	-0.213234	-0.0466365	1.02288	-0.202813	0	0	-0.306097	0.109333	0.150886	0.575193	-0.265193	-0.314209	1.22747	1.5708	0	0	0.19562	-0.452638	0.238934	0.614066	1.5708	0	0
10.22	-3.06735	1.38255	-1.15178	0.660228	1.75917	0.940643	0.0619026	0.0172999	-0.0408784	0.556412	-0.199284	0	0	0.123488	-0.213564	-0.0373567	1.01587	-0.202133	0	0	-0.297113	0.110184	0.148074	0.572762	-0.267982	-0.316638	1.22564	1.5708	0	0	0.194611	-0.454512	0.239354	0.621762	1.5708	0	0
10.23	-3.07573	1.38519	-1.13798	0.658626	1.75449	0.940234	0.0693311	0.0133251	-0.0438903	0.557757	-0.201938	0	0	0.114366	-0.213988	-0.0278065	1.0056	-0.202493	0	0	-0.291476	0.1126	0.144069	0.570717	-0.271708	-0.317985	1.22413	1.5708	0	0	0.193937	-0.455806	0.240382	0.629323	1.5708	0	0
10.24	-3.08754	1.3859	-1.12169	0.657108	1.74963	0.939974	0.0772132	0.00807066	-0.0581201	0.562652	-0.207121	0	0	0.103455	-0.215853	-0.0202874	0.993116	-0.203162	0	0	-0.288286	0.116162	0.141225	0.569458	-0.276114	-0.318908	1.223	1.5708	0	0	0.193851	-0.456941	0.242068	0.636505	1.5708	0	0
10.25	-3.11759	1.38814	-1.08998	0.655735	1.74429	0.939739	0.0677554	0.00613829	-0.0801498	0.512663	-0.225301	0	0	0.0957394	-0.219296	-0.0145279	0.978978	-0.20175	0	0	-0.283742	0.12169	0.141529	0.568541	-0.281996	-0.319148	1.22209	1.5708	0	0	0.195241	-0.456016	0.243622	0.641364	1.5708	0	0
10.26	-3.11521	1.39181	-1.0874	0.654114	1.73958	0.9388	0.0927432	0.00359779	-0.0526194	0.560226	-0.219538	0	0	0.0860347	-0.216848	-0.0100725	0.96335	-0.196251	0	0	-0.278146	0.121048	0.136799	0.566515	-0.285211	-0.320222	1.22217	1.5708	0	0	0.192842	-0.458242	0.241164	0.651283	1.5708	0	0
10.27	-3.1329	1.39619	-1.06662	0.652569	1.73454	0.938026	0.102239	0.00113249	-0.0492317	0.559647	-0.219139	0	0	0.0788292	-0.217138	-0.00781588	0.945752	-0.191061	0	0	-0.271383	0.122847	0.134765	0.56437	-0.289859	-0.321552	1.22228	1.5708	0	0	0.192125	-0.45851	0.239617	0.658502	1.5708	0	0
10.28	3.13389	1.39947	-1.04705	0.650933	1.72933	0.937306	0.110599	-0.00203848	-0.0487123	0.558788	-0.221346	0	0	0.0703726	-0.217314	-0.00709081	0.925626	-0.185111	0	0	-0.266155	0.12501	0.132557	0.562921	-0.294812	-0.322417	1.22253	1.5708	0	0	0.19166	-0.458572	0.238191	0.665734	1.5708	0	0
10.29	3.11783	1.40224	-1.028	0.649223	1.72395	0.936592	0.118555	-0.00551597	-0.0488001	0.557698	-0.225522	0	0	0.0613044	-0.217131	-0.00820654	0.902826	-0.177296	0	0	-0.261757	0.127319	0.130106	0.562229	-0.299965	-0.322648	1.22244	1.5708	0	0	0.190973	-0.458588	0.236553	0.673638	1.5708	0	0
10.3	3.10103	1.40452	-1.0086	0.64748	1.71843	0.935901	0.126088	-0.0088961	-0.0490739	0.555862	-0.23044	0	0	0.0517519	-0.216877	-0.0117471	0.877243	-0.169212	0	0	-0.258116	0.129901	0.127807	0.562102	-0.305375	-0.322242	1.22218	1.5708	0	0	0.190335	-0.458545	0.235462	0.681865	1.5708	0	0
10.31	3.07872	1.40623	-0.984349	0.64578	1.71271	0.935269	0.133986	-0.0113	-0.0494128	0.553849	-0.236228	0	0	0.0424712	-0.217048	-0.0172055	0.849101	-0.160252	0	0	-0.25525	0.133419	0.12608	0.562973	-0.310971	-0.321759	1.22155	1.5708	0	0	0.189559	-0.458662	0.235553	0.690422	1.5708	0	0
10.32	3.06181	1.40771	-0.965014	0.643886	1.70685	0.934563	0.140798	-0.0150153	-0.0509785	0.551363	-0.242021	0	0	0.0330492	-0.215502	-0.0233752	0.819079	-0.149981	0	0	-0.253035	0.136619	0.123063	0.564927	-0.316479	-0.320529	1.22052	1.5708	0	0	0.187959	-0.459428	0.235736	0.700224	1.5708	0	0
10.33	3.05055	1.40907	-0.950828	0.641815	1.70085	0.933786	0.146472	-0.0201498	-0.0540241	0.547973	-0.248009	0	0	0.0235942	-0.211966	-0.0288548	0.788636	-0.137594	0	0	-0.251432	0.139357	0.118686	0.567896	-0.321417	-0.31868	1.21915	1.5708	0	0	0.185336	-0.460483	0.234725	0.711449	1.5708	0	0
10.34	3.03989	1.40963	-0.937733	0.639729	1.69456	0.933107	0.151823	-0.0252862	-0.0573986	0.544803	-0.254973	0	0	0.0142082	-0.207974	-0.0347379	0.760016	-0.12362	0	0	-0.251371	0.142595	0.114737	0.571998	-0.32656	-0.31644	1.2177	1.5708	0	0	0.183185	-0.461157	0.233601	0.722685	1.5708	0	0
10.35	3.03636	1.4096	-0.932193	0.637695	1.68803	0.932564	0.15594	-0.0309256	-0.0601332	0.540944	-0.262773	0	0	0.00491454	-0.20297	-0.0418728	0.734902	-0.109567	0	0	-0.25334	0.145149	0.110868	0.577283	-0.33113	-0.31414	1.21621	1.5708	0	0	0.18132	-0.461888	0.232071	0.734155	1.5708	0	0
10.36	3.04298	1.40946	-0.937371	0.63572	1.68124	0.93219	0.159047	-0.0379102	-0.0623043	0.536585	-0.271179	0	0	-0.00352509	-0.196332	-0.0504947	0.713219	-0.0970382	0	0	-0.257375	0.146188	0.107057	0.583659	-0.335398	-0.31141	1.21454	1.5708	0	0	0.179606	-0.462546	0.229464	0.745976	1.5708	0	0
10.37	3.05436	1.41044	-0.947511	0.63387	1.67428	0.931954	0.162333	-0.0460641	-0.063964	0.530919	-0.280222	0	0	-0.00966959	-0.187928	-0.0590764	0.693167	-0.0878552	0	0	-0.261716	0.145407	0.103099	0.590437	-0.339447	-0.30861	1.21252	1.5708	0	0	0.178019	-0.463062	0.225583	0.757826	1.5708	0	0
